<svg width="215" height="61" viewBox="0 0 215 61" fill="none" xmlns="http://www.w3.org/2000/svg">
<path d="M76.0417 35.7674H83.1113L79.5932 25.0482L76.0417 35.7674ZM85.0514 41.7517L83.736 37.7073H75.4171L74.0688 41.7517H67.9531L75.713 21.2998H83.5057L91.2984 41.7517H85.0514ZM97.7198 21.2998H104.296V41.7517H97.7198V21.2998ZM119.101 23.2398V32.4793H124.527C124.943 32.4793 125.217 32.4135 125.349 32.282C125.48 32.1505 125.546 31.8765 125.546 31.46V24.2591C125.546 23.8207 125.48 23.5467 125.349 23.437C125.217 23.3055 124.943 23.2398 124.527 23.2398H119.101ZM119.101 34.4192V41.7517H112.755V21.2998H129.294C131.026 21.2998 131.892 22.1657 131.892 23.8974V31.8217C131.892 33.5534 131.026 34.4192 129.294 34.4192H127.815L132.451 41.7517H125.842L121.469 34.4192H119.101ZM158.125 28.0075H151.779V24.2591C151.779 23.8207 151.713 23.5467 151.582 23.437C151.45 23.3055 151.176 23.2398 150.76 23.2398H146.715C146.277 23.2398 145.992 23.3055 145.86 23.437C145.751 23.5467 145.696 23.8207 145.696 24.2591V38.7924C145.696 39.2308 145.751 39.5158 145.86 39.6473C145.992 39.7569 146.277 39.8117 146.715 39.8117H150.76C151.176 39.8117 151.45 39.7569 151.582 39.6473C151.713 39.5158 151.779 39.2308 151.779 38.7924V33.1698H148.425V31.2298H158.125V39.1541C158.125 40.8858 157.259 41.7517 155.527 41.7517H141.948C140.216 41.7517 139.35 40.8858 139.35 39.1541V23.8974C139.35 22.1657 140.216 21.2998 141.948 21.2998H155.527C157.259 21.2998 158.125 22.1657 158.125 23.8974V28.0075ZM184.469 23.8974V39.1541C184.469 40.8858 183.603 41.7517 181.871 41.7517H168.259C166.527 41.7517 165.661 40.8858 165.661 39.1541V23.8974C165.661 22.1657 166.527 21.2998 168.259 21.2998H181.871C183.603 21.2998 184.469 22.1657 184.469 23.8974ZM178.156 38.7924V24.2591C178.156 23.8207 178.09 23.5467 177.959 23.437C177.827 23.3055 177.553 23.2398 177.137 23.2398H173.026C172.588 23.2398 172.303 23.3055 172.171 23.437C172.062 23.5467 172.007 23.8207 172.007 24.2591V38.7924C172.007 39.2308 172.062 39.5158 172.171 39.6473C172.303 39.7569 172.588 39.8117 173.026 39.8117H177.137C177.553 39.8117 177.827 39.7569 177.959 39.6473C178.09 39.5158 178.156 39.2308 178.156 38.7924ZM206.138 21.2998H212.023V41.7517H206.565L198.312 27.2184V41.7517H192.459V21.2998H197.983L206.138 35.866V21.2998Z" fill="#182937"/>
<path d="M52.5231 19.6191L30.3717 32.3987C30.3182 32.4296 30.2852 32.4868 30.2852 32.5486V58.1074C30.2852 58.2405 30.4293 58.3242 30.5447 58.2576L52.696 45.4779C52.7497 45.447 52.7825 45.3898 52.7825 45.328V19.769C52.7825 19.6358 52.6382 19.5525 52.5231 19.6191Z" fill="#EC9230"/>
<path d="M13.9286 22.8799L37.1166 9.13895C37.1718 9.10616 37.2407 9.10672 37.2954 9.14042L42.5845 12.3952C42.6959 12.4638 42.6939 12.6264 42.5809 12.6922L19.1215 26.3413C19.0683 26.3723 19.0355 26.4292 19.0355 26.4909V53.3243C19.0355 53.4626 18.8815 53.5449 18.7664 53.4686L13.9208 50.238C13.8727 50.2061 13.8438 50.152 13.8438 50.0942V23.0288C13.8438 22.9677 13.876 22.9111 13.9286 22.8799Z" fill="#EC9230"/>
<path d="M5.19141 44.8977V20.1909C5.19141 20.0599 5.33123 19.9764 5.44649 20.0385L10.7247 22.8806C10.7808 22.9108 10.8158 22.9693 10.8158 23.033V48.1457C10.8158 48.2812 10.6673 48.364 10.552 48.2932L5.27375 45.045C5.22257 45.0136 5.19141 44.9578 5.19141 44.8977Z" fill="#273679"/>
<path d="M21.6328 54.4163V29.7094C21.6328 29.5785 21.7726 29.495 21.8879 29.5571L27.1662 32.3992C27.2222 32.4294 27.2572 32.4879 27.2572 32.5515V57.6644C27.2572 57.7999 27.1087 57.8826 26.9934 57.8119L21.7152 54.5638C21.664 54.5319 21.6328 54.4764 21.6328 54.4163Z" fill="#273679"/>
<path d="M12.0266 20.2833L7.17766 17.4548C7.06341 17.3881 7.06313 17.2232 7.1771 17.1561L28.7492 4.46665C28.8593 4.40191 28.8637 4.24433 28.7575 4.1735L28.0602 3.70863C27.9288 3.62102 27.9738 3.41761 28.1298 3.39359L38.5963 1.78337C38.7372 1.7617 38.8424 1.91009 38.7753 2.03586L35.5667 8.05199C35.5186 8.1422 35.4031 8.17128 35.318 8.11455L34.2692 7.41532C34.214 7.37851 34.1426 7.37652 34.0854 7.41014L12.2015 20.283C12.1476 20.3148 12.0807 20.3149 12.0266 20.2833Z" fill="#273679"/>
<path d="M28.4661 29.8009L23.6171 26.9723C23.5029 26.9057 23.5026 26.7407 23.6166 26.6737L45.1887 13.9842C45.2988 13.9195 45.3032 13.7619 45.197 13.6911L44.4996 13.2262C44.3682 13.1386 44.4132 12.9352 44.5693 12.9111L55.0356 11.301C55.1766 11.2793 55.282 11.4276 55.2145 11.5534L52.0062 17.5695C51.9581 17.6598 51.8425 17.6888 51.7574 17.6321L50.7088 16.9329C50.6533 16.8961 50.5821 16.8941 50.5248 16.9277L28.641 29.8006C28.587 29.8323 28.5202 29.8324 28.4661 29.8009Z" fill="#273679"/>
</svg>
